<svg xmlns="http://www.w3.org/2000/svg" viewBox="0 0 700 900"><defs><linearGradient id="bg" x1="0" y1="0" x2="1" y2="1"><stop stop-color="#1b1b1b"/><stop offset="1" stop-color="#030303"/></linearGradient><linearGradient id="cap" x1="0" y1="0" x2="0" y2="1"><stop stop-color="#f5f5f5"/><stop offset=".45" stop-color="#8a8a8a"/><stop offset="1" stop-color="#1a1a1a"/></linearGradient><linearGradient id="glass" x1="0" y1="0" x2="1" y2="0"><stop stop-color="#090909"/><stop offset=".45" stop-color="#2d2d2d"/><stop offset=".62" stop-color="#0d0d0d"/><stop offset="1" stop-color="#050505"/></linearGradient><filter id="shadow"><feDropShadow dx="0" dy="24" stdDeviation="22" flood-color="#000" flood-opacity=".8"/></filter></defs><rect width="700" height="900" fill="url(#bg)"/><g opacity=".18" fill="#fff"><circle cx="100" cy="120" r="4"/><circle cx="610" cy="180" r="3"/><circle cx="80" cy="760" r="3"/><circle cx="590" cy="730" r="5"/></g><ellipse cx="350" cy="790" rx="210" ry="38" fill="#000" opacity=".65"/><g filter="url(#shadow)"><rect x="245" y="120" width="210" height="95" rx="24" fill="url(#cap)" stroke="#d7d7d7" stroke-width="3"/><rect x="280" y="205" width="140" height="70" rx="18" fill="#161616" stroke="#8d8d8d" stroke-width="3"/><path d="M230 265 Q350 225 470 265 L500 700 Q350 770 200 700Z" fill="url(#glass)" stroke="#8d8d8d" stroke-width="4"/><rect x="230" y="360" width="240" height="250" rx="12" fill="#070707" stroke="#d0d0d0" stroke-width="3"/><g fill="none" stroke="#e8e8e8" stroke-width="2"><polygon points="320,390 350,370 380,390 380,425 350,445 320,425"/><path d="M335 392c18 8 12 24 30 32M365 392c-18 8-12 24-30 32"/></g><text x="350" y="470" fill="#fff" text-anchor="middle" font-family="Arial,Helvetica,sans-serif" font-size="22" letter-spacing="3">MARPEPTIDES</text><text x="350" y="525" fill="#fff" text-anchor="middle" font-family="Arial,Helvetica,sans-serif" font-size="34" font-weight="700">EPITHALON</text><rect x="300" y="545" width="100" height="44" rx="6" fill="none" stroke="#aaa"/><text x="350" y="575" fill="#fff" text-anchor="middle" font-family="Arial" font-size="22">10MG</text><text x="350" y="635" fill="#d8d8d8" text-anchor="middle" font-family="Arial" font-size="16" letter-spacing="2">SOLO INVESTIGACIÓN</text><text x="350" y="665" fill="#bdbdbd" text-anchor="middle" font-family="Arial" font-size="14">MARPEPTIDES.COM</text></g></svg>